<svg width="202" height="202" viewBox="0 0 202 202" fill="none" xmlns="http://www.w3.org/2000/svg">
<circle cx="101" cy="101" r="101" fill="#C4C4C4"/>
<g clip-path="url(#clip0)">
<path d="M101 107.682C115.596 107.682 127.438 94.7635 127.438 78.8409C127.438 62.9183 115.596 50 101 50C86.4043 50 74.5625 62.9183 74.5625 78.8409C74.5625 94.7635 86.4043 107.682 101 107.682ZM124.5 114.091H114.384C110.308 116.134 105.773 117.296 101 117.296C96.2266 117.296 91.7102 116.134 87.616 114.091H77.5C64.5199 114.091 54 125.567 54 139.727V142.932C54 148.239 57.9473 152.546 62.8125 152.546H139.188C144.053 152.546 148 148.239 148 142.932V139.727C148 125.567 137.48 114.091 124.5 114.091Z" fill="white"/>
</g>
<defs>
<clipPath id="clip0">
<rect width="94" height="102.546" fill="white" transform="translate(54 50)"/>
</clipPath>
</defs>
</svg>
