<svg width="35" height="39" viewBox="0 0 35 39" fill="none" xmlns="http://www.w3.org/2000/svg">
<g clip-path="url(#clip0)">
<path d="M21.2578 15.228V20.5302C21.2578 20.6644 21.1484 20.7688 21.0078 20.7688H20.1172C20.0313 20.7688 19.9531 20.7241 19.9141 20.6719L17.3672 17.3906V20.5376C17.3672 20.6719 17.2578 20.7763 17.1172 20.7763H16.2266C16.0859 20.7763 15.9766 20.6719 15.9766 20.5376V15.2354C15.9766 15.1012 16.0859 14.9968 16.2266 14.9968H17.1094C17.1875 14.9968 17.2734 15.0341 17.3125 15.1012L19.8594 18.3825V15.2354C19.8594 15.1012 19.9688 14.9968 20.1094 14.9968H21C21.1406 14.9894 21.2578 15.1012 21.2578 15.228V15.228ZM14.8516 14.9894H13.9609C13.8203 14.9894 13.7109 15.0938 13.7109 15.228V20.5302C13.7109 20.6644 13.8203 20.7688 13.9609 20.7688H14.8516C14.9922 20.7688 15.1016 20.6644 15.1016 20.5302V15.228C15.1016 15.1012 14.9922 14.9894 14.8516 14.9894V14.9894ZM12.7031 19.434H10.2734V15.228C10.2734 15.0938 10.1641 14.9894 10.0234 14.9894H9.13282C8.9922 14.9894 8.88282 15.0938 8.88282 15.228V20.5302C8.88282 20.5973 8.90626 20.6495 8.95313 20.6943C9.00001 20.7315 9.0547 20.7614 9.12501 20.7614H12.6953C12.8359 20.7614 12.9453 20.657 12.9453 20.5227V19.6726C12.9453 19.5458 12.8359 19.434 12.7031 19.434V19.434ZM25.9453 14.9894H22.375C22.2422 14.9894 22.125 15.0938 22.125 15.228V20.5302C22.125 20.657 22.2344 20.7688 22.375 20.7688H25.9453C26.0859 20.7688 26.1953 20.6644 26.1953 20.5302V19.68C26.1953 19.5458 26.0859 19.4414 25.9453 19.4414H23.5156V18.5465H25.9453C26.0859 18.5465 26.1953 18.4421 26.1953 18.3079V17.4503C26.1953 17.3161 26.0859 17.2117 25.9453 17.2117H23.5156V16.3168H25.9453C26.0859 16.3168 26.1953 16.2124 26.1953 16.0781V15.228C26.1875 15.1012 26.0781 14.9894 25.9453 14.9894V14.9894ZM35 8.47905V29.755C34.9922 33.0959 32.125 35.8029 28.6172 35.7955H6.32813C2.82813 35.788 -0.00780403 33.0437 8.47344e-06 29.7028V8.42685C0.00782097 5.08594 2.88282 2.37891 6.38282 2.38637H28.6719C32.1719 2.39383 35.0078 5.13069 35 8.47905ZM30.1875 17.6218C30.1875 12.1779 24.4688 7.74823 17.4453 7.74823C10.4219 7.74823 4.70313 12.1779 4.70313 17.6218C4.70313 22.4989 9.23438 26.5856 15.3594 27.3612C16.8516 27.6669 16.6797 28.1889 16.3438 30.1055C16.2891 30.4112 16.0859 31.3061 17.4453 30.7617C18.8047 30.2173 24.7813 26.6378 27.4609 23.6996C29.3047 21.7607 30.1875 19.7994 30.1875 17.6218Z" fill="#1DD100"/>
</g>
<defs>
<clipPath id="clip0">
<rect width="35" height="38.1818" fill="white"/>
</clipPath>
</defs>
</svg>
