<svg width="22" height="24" viewBox="0 0 22 24" fill="none" xmlns="http://www.w3.org/2000/svg">
<path d="M12.7188 18H9.28125C8.70977 18 8.25 17.4984 8.25 16.875V8.99999H4.48164C3.7168 8.99999 3.33437 7.99218 3.87578 7.40156L10.4113 0.267181C10.7336 -0.0843811 11.2621 -0.0843811 11.5844 0.267181L18.1242 7.40156C18.6656 7.99218 18.2832 8.99999 17.5184 8.99999H13.75V16.875C13.75 17.4984 13.2902 18 12.7188 18ZM22 17.625V22.875C22 23.4984 21.5402 24 20.9688 24H1.03125C0.459766 24 0 23.4984 0 22.875V17.625C0 17.0016 0.459766 16.5 1.03125 16.5H6.875V16.875C6.875 18.3234 7.95352 19.5 9.28125 19.5H12.7188C14.0465 19.5 15.125 18.3234 15.125 16.875V16.5H20.9688C21.5402 16.5 22 17.0016 22 17.625ZM16.6719 21.75C16.6719 21.2344 16.2852 20.8125 15.8125 20.8125C15.3398 20.8125 14.9531 21.2344 14.9531 21.75C14.9531 22.2656 15.3398 22.6875 15.8125 22.6875C16.2852 22.6875 16.6719 22.2656 16.6719 21.75ZM19.4219 21.75C19.4219 21.2344 19.0352 20.8125 18.5625 20.8125C18.0898 20.8125 17.7031 21.2344 17.7031 21.75C17.7031 22.2656 18.0898 22.6875 18.5625 22.6875C19.0352 22.6875 19.4219 22.2656 19.4219 21.75Z" fill="white"/>
</svg>
